<svg width="31" height="29" viewBox="0 0 31 29" fill="none" xmlns="http://www.w3.org/2000/svg">
<path fill-rule="evenodd" clip-rule="evenodd" d="M4.5438 4.5175C3.77084 5.35288 3.15323 6.74562 3.15323 9.01203C3.15323 12.5365 5.13388 16.0186 7.85996 19.0395C10.2762 21.7172 13.1371 23.8742 15.25 25.1752C17.3629 23.8742 20.2238 21.7172 22.64 19.0395C25.3661 16.0186 27.3468 12.5365 27.3468 9.01203C27.3468 6.74562 26.7292 5.35288 25.9562 4.5175C25.1805 3.67915 24.0962 3.23731 22.8465 3.164C21.5853 3.09003 20.2215 3.40048 19.0437 3.99728C17.8563 4.59898 16.9772 5.42887 16.5476 6.28554C16.3014 6.77649 15.7992 7.08645 15.25 7.08645C14.7008 7.08645 14.1986 6.77649 13.9524 6.28554C13.5228 5.42887 12.6437 4.59898 11.4563 3.99728C10.2785 3.40048 8.91471 3.09003 7.65354 3.164C6.40376 3.23731 5.31952 3.67915 4.5438 4.5175ZM15.25 3.19556C14.5374 2.47067 13.6797 1.86922 12.7685 1.40754C11.1792 0.6022 9.30707 0.158806 7.48356 0.265758C5.64866 0.373377 3.79943 1.04722 2.41285 2.54576C1.02352 4.04727 0.25 6.21265 0.25 9.01203C0.25 13.5928 2.78547 17.7497 5.70456 20.9845C8.64675 24.245 12.1616 26.7739 14.5314 28.1242C14.9768 28.378 15.5232 28.378 15.9686 28.1242C18.3384 26.7739 21.8532 24.245 24.7954 20.9845C27.7145 17.7497 30.25 13.5928 30.25 9.01203C30.25 6.21265 29.4765 4.04727 28.0871 2.54576C26.7006 1.04722 24.8513 0.373377 23.0164 0.265758C21.1929 0.158806 19.3208 0.6022 17.7315 1.40754C16.8203 1.86922 15.9626 2.47067 15.25 3.19556Z" fill="#A9A9A9"/>
</svg>
